<svg width="24" height="24" viewBox="0 0 24 24" fill="none" xmlns="http://www.w3.org/2000/svg">
<path fill-rule="evenodd" clip-rule="evenodd" d="M16.5134 21.5H8.16555C5.09919 21.5 2.74679 20.3925 3.41498 15.9348L4.19301 9.89363C4.60491 7.66937 6.02367 6.81812 7.26852 6.81812H17.447C18.7102 6.81812 20.0466 7.73345 20.5225 9.89363L21.3006 15.9348C21.8681 19.8891 19.5797 21.5 16.5134 21.5Z" stroke="#001718" stroke-width="1.5" stroke-linecap="round" stroke-linejoin="round"/>
<path d="M16.6502 6.59842C16.6502 4.21235 14.716 2.27805 12.3299 2.27805V2.27805C11.1809 2.27319 10.0773 2.72622 9.26308 3.53697C8.44889 4.34772 7.9912 5.44941 7.99121 6.59842H7.99121" stroke="#001718" stroke-width="1.5" stroke-linecap="round" stroke-linejoin="round"/>
<path d="M15.296 11.1018H15.2502" stroke="#001718" stroke-width="1.5" stroke-linecap="round" stroke-linejoin="round"/>
<path d="M9.46492 11.1018H9.41916" stroke="#001718" stroke-width="1.5" stroke-linecap="round" stroke-linejoin="round"/>
</svg>
