<svg width="60" height="22" viewBox="0 0 60 22" fill="none" xmlns="http://www.w3.org/2000/svg">
<path d="M0 21.6789V1.57282H12.9617V3.88114H2.70919V10.2948H11.6071V12.5722H2.70919V21.6789H0Z" fill="#7E59E7"/>
<path d="M16.4949 16.5798V6.4148H19.1062V16.1643C19.1062 19.1154 20.4282 19.8849 22.1695 19.8849C23.5568 19.8849 25.1366 19.0829 25.8449 17.2876V6.41643H28.4562V21.6802H26.7474L26.1991 17.9921C25.587 20.8134 23.6204 22 21.3633 22C18.783 22 16.4949 20.4595 16.4949 16.5798Z" fill="#7E59E7"/>
<path d="M33.9509 6.41557H35.6923L36.208 10.6166C36.6275 7.15254 38.4978 6.09578 40.3028 6.09578C40.9475 6.09578 41.3343 6.15909 41.8827 6.25648L41.7211 8.62973C41.3979 8.56642 40.9801 8.53396 40.4644 8.53396C39.3367 8.53396 37.4011 9.04692 36.5638 11.3244V21.6826H33.9509V6.41557Z" fill="#7E59E7"/>
<path d="M45.16 6.41557H46.9014L47.4171 10.6166C47.8366 7.15254 49.7069 6.09578 51.5119 6.09578C52.1566 6.09578 52.5434 6.15909 53.0917 6.25648L52.9302 8.62973C52.607 8.56642 52.1892 8.53396 51.6735 8.53396C50.5458 8.53396 48.6102 9.04692 47.7729 11.3244V21.6826H45.16V6.41557Z" fill="#7E59E7"/>
<path d="M56.3887 21.679V0.193167H57.3875C58.1285 0.193167 58.6769 0.0973973 59 0V21.6774H56.3887V21.679Z" fill="#7E59E7"/>
</svg>
